<svg xmlns="http://www.w3.org/2000/svg" fill="none" stroke-linecap="square" stroke-miterlimit="10" viewBox="0 0 800 600"><clipPath id="a"><path d="M0 0h800v600H0V0z"/></clipPath><g clip-path="url(#a)"><path d="M0 0h800v600H0z"/><path d="M112.58662 101.88714H292.6811v246.99213H112.58662z"/><path stroke="#000" stroke-linecap="butt" stroke-linejoin="round" stroke-width="2" d="M112.58662 101.88714H292.6811v246.99213H112.58662z"/><path d="M507.3189 101.88714h180.09448v394.17322H507.3189z"/><path stroke="#000" stroke-linecap="butt" stroke-linejoin="round" stroke-width="2" d="M507.3189 101.88714h180.09448v394.17322H507.3189z"/><path d="M112.58662 59.87139h98.803154v42.015747H112.58662z"/><path fill="#000" d="M130.13348 74.150764v4.28125h-.328125q-.171875-1.234375-.59375-1.953125-.421875-.734375-1.203125-1.15625-.7812424-.4375-1.6249924-.4375-.9375 0-1.5625.578125t-.625 1.3125q0 .5625.390625 1.03125.578125.6875 2.6875 1.828125 1.7343674.921875 2.3593674 1.421875.640625.5.984375 1.171875t.34375 1.40625q0 1.40625-1.09375 2.421875-1.078125 1.015625-2.7968674 1.015625-.53125 0-1.015625-.078125-.28125-.046875-1.171875-.328125-.890625-.296875-1.125-.296875-.21875 0-.359375.140625-.125.140625-.1875.5625h-.34375v-4.234375h.34375q.234375 1.328125.625 2 .40625.65625 1.234375 1.09375t1.8125.4375q1.1406174 0 1.7968674-.59375.65625-.609375.65625-1.4375 0-.453125-.25-.90625-.25-.46875-.78125-.875-.34374237-.28125-1.9374924-1.15625-1.578125-.890625-2.25-1.421875t-1.015625-1.171875q-.34375-.640625-.34375-1.390625 0-1.34375 1.015625-2.296875 1.015625-.96875 2.59375-.96875.984375 0 2.0937424.484375.5.234375.71875.234375.234375 0 .375-.140625.15625-.140625.25-.578125h.328125zm3.8132172 7.4375q0 1.859375.90625 2.921875.90625 1.046875 2.140625 1.046875.8125 0 1.421875-.4375.609375-.453125 1.015625-1.546875l.28125.171875q-.1875 1.25-1.109375 2.28125-.921875 1.015625-2.296875 1.015625-1.515625 0-2.59375-1.171875-1.0625-1.171875-1.0625-3.140625 0-2.140625 1.09375-3.328125 1.109375-1.203125 2.765625-1.203125 1.40625 0 2.296875.921875.90625.921875.90625 2.46875h-5.765625zm0-.53125h3.859375q-.046875-.796875-.1875-1.125-.234375-.515625-.6875-.796875-.4375-.296875-.9375-.296875-.75 0-1.34375.59375-.59375.578125-.703125 1.625zm9.311783-1.09375q1.46875-1.765625 2.796875-1.765625.6875 0 1.171875.34375.5.34375.78125 1.125.203125.546875.203125 1.671875v3.5625q0 .796875.125 1.078125.109375.234375.328125.359375t.828125.125v.328125h-4.125v-.328125h.171875q.578125 0 .8125-.171875.234375-.1875.328125-.53125.03125-.140625.03125-.859375v-3.40625q0-1.140625-.296875-1.65625t-1-.515625q-1.078125 0-2.15625 1.1875v4.390625q0 .859375.09375 1.046875.140625.265625.359375.390625t.90625.125v.328125h-4.125v-.328125h.171875q.640625 0 .859375-.3125.234375-.328125.234375-1.25v-3.09375q0-1.5-.078125-1.828125-.0625-.328125-.203125-.4375-.140625-.125-.375-.125-.265625 0-.609375.140625l-.140625-.328125 2.515625-1.03125h.390625v1.765625zm12.796875 5.890625q-.625.640625-1.203125.921875-.578125.265625-1.25.265625-1.375 0-2.390625-1.140625t-1.015625-2.9375q0-1.796875 1.125-3.28125t2.90625-1.484375q1.09375 0 1.828125.703125v-1.546875q0-1.4375-.078125-1.765625-.0625-.328125-.21875-.4375-.140625-.125-.359375-.125-.234375 0-.625.15625l-.125-.328125 2.484375-1.015625h.421875v9.640625q0 1.46875.0625 1.796875t.21875.453125q.15625.125.359375.125.234375 0 .65625-.15625l.09375.3125-2.484375 1.03125h-.40625v-1.1875zm0-.640625v-4.296875q-.0625-.625-.34375-1.125-.265625-.515625-.71875-.765625-.453125-.265625-.875-.265625-.796875 0-1.4375.71875-.828125.9375-.828125 2.765625 0 1.84375.796875 2.828125.8125.96875 1.796875.96875.828125 0 1.609375-.828125zm4.828125-3.625q0 1.859375.90625 2.921875.90625 1.046875 2.140625 1.046875.8125 0 1.421875-.4375.609375-.453125 1.015625-1.546875l.28125.171875q-.1875 1.25-1.109375 2.28125-.921875 1.015625-2.296875 1.015625-1.515625 0-2.59375-1.171875-1.0625-1.171875-1.0625-3.140625 0-2.140625 1.09375-3.328125 1.109375-1.203125 2.765625-1.203125 1.40625 0 2.296875.921875.90625.921875.90625 2.46875h-5.765625zm0-.53125h3.859375q-.046875-.796875-.1875-1.125-.234375-.515625-.6875-.796875-.4375-.296875-.9375-.296875-.75 0-1.34375.59375-.59375.578125-.703125 1.625zm9.327408-2.859375v1.875q1.046875-1.875 2.140625-1.875.5 0 .828125.3125.328125.296875.328125.703125 0 .359375-.234375.609375-.234375.234375-.5625.234375t-.71875-.3125q-.390625-.3125-.578125-.3125-.171875 0-.359375.1875-.40625.359375-.84375 1.21875v4q0 .703125.171875 1.046875.109375.25.40625.421875.3125.15625.875.15625v.328125h-4.28125v-.328125q.640625 0 .953125-.203125.234375-.140625.3125-.46875.046875-.140625.046875-.875v-3.234375q0-1.453125-.0625-1.734375-.046875-.28125-.21875-.40625-.15625-.125-.390625-.125-.28125 0-.640625.140625l-.078125-.328125 2.515625-1.03125h.390625z"/><path d="M507.3189 59.87139h116.75592v42.015747H507.3189z"/><path fill="#000" d="M528.9283 86.79139h-3.296875l-4.1875-5.78125q-.453125.03125-.75.03125h-.265625q-.125-.015625-.28125-.03125v3.59375q0 1.171875.265625 1.453125.34375.390625 1.03125.390625h.484375v.34375h-5.296875v-.34375h.46875q.78125 0 1.125-.5.1875-.28125.1875-1.34375v-7.984375q0-1.15625-.25-1.4375-.359375-.40625-1.0625-.40625h-.46875v-.34375h4.5q1.96875 0 2.90625.296875.9375.28125 1.578125 1.0625.65625.765625.65625 1.828125 0 1.140625-.75 1.984375-.734375.828125-2.28125 1.171875l2.546875 3.546875q.875 1.21875 1.5 1.625.625.390625 1.640625.5v.34375zm-8.78125-6.34375h.515625q1.765625 0 2.65625-.765625.90625-.765625.90625-1.953125 0-1.15625-.734375-1.875-.71875-.71875-1.90625-.71875-.53125 0-1.4375.171875v5.140625zm10.5997925 1.140625q0 1.859375.90625 2.921875.90625 1.046875 2.140625 1.046875.8125 0 1.421875-.4375.609375-.453125 1.015625-1.546875l.28125.171875q-.1875 1.25-1.109375 2.28125-.921875 1.015625-2.296875 1.015625-1.515625 0-2.59375-1.171875-1.0625-1.171875-1.0625-3.140625 0-2.140625 1.09375-3.328125 1.109375-1.203125 2.765625-1.203125 1.40625 0 2.296875.921875.90625.921875.90625 2.46875h-5.765625zm0-.53125h3.859375q-.046875-.796875-.1875-1.125-.234375-.515625-.6875-.796875-.4375-.296875-.9375-.296875-.75 0-1.34375.59375-.59375.578125-.703125 1.625zm13.968079 2.5625q-.34375 1.65625-1.328125 2.546875-.984375.875-2.171875.875-1.421875 0-2.484375-1.1875-1.046875-1.1875-1.046875-3.21875 0-1.96875 1.171875-3.203125t2.8125-1.234375q1.21875 0 2.015625.65625t.796875 1.34375q0 .359375-.234375.578125-.21875.203125-.609375.203125-.546875 0-.8125-.34375-.15625-.1875-.21875-.71875-.046875-.546875-.359375-.828125-.328125-.28125-.890625-.28125-.90625 0-1.46875.671875-.734375.90625-.734375 2.359375 0 1.5.734375 2.640625t1.984375 1.140625q.890625 0 1.609375-.609375.5-.421875.96875-1.515625l.265625.125zm2.5930176-2.03125q0 1.859375.90625 2.921875.90625 1.046875 2.140625 1.046875.8125 0 1.421875-.4375.609375-.453125 1.015625-1.546875l.28125.171875q-.1875 1.25-1.109375 2.28125-.921875 1.015625-2.296875 1.015625-1.515625 0-2.59375-1.171875-1.0625-1.171875-1.0625-3.140625 0-2.140625 1.09375-3.328125 1.109375-1.203125 2.765625-1.203125 1.40625 0 2.296875.921875.90625.921875.90625 2.46875h-5.765625zm0-.53125h3.859375q-.046875-.796875-.1875-1.125-.234375-.515625-.6875-.796875-.4375-.296875-.9375-.296875-.75 0-1.34375.59375-.59375.578125-.703125 1.625zm8.999268-7.21875q.390625 0 .65625.265625t.265625.65625q0 .375-.265625.65625-.265625.265625-.65625.265625-.375 0-.65625-.265625-.265625-.28125-.265625-.65625 0-.390625.265625-.65625t.65625-.265625zm.765625 4.359375v6.703125q0 .78125.109375 1.046875t.328125.390625q.234375.125.828125.125v.328125h-4.0625v-.328125q.609375 0 .8125-.109375.21875-.125.34375-.390625.125-.28125.125-1.0625V81.69764q0-1.359375-.078125-1.765625-.078125-.296875-.21875-.40625-.125-.109375-.359375-.109375-.265625 0-.625.140625l-.125-.328125 2.515625-1.03125h.40625zm1.8707886.25h3.921875v.34375h-.25q-.359375 0-.546875.171875t-.1875.453125q0 .328125.1875.765625l1.953125 4.609375 1.9375-4.78125q.21875-.515625.21875-.78125 0-.125-.078125-.203125-.09375-.140625-.25-.1875t-.625-.046875v-.34375h2.71875v.34375q-.46875.03125-.65625.1875-.3125.265625-.578125.90625l-2.953125 7.15625h-.375l-2.984375-7.03125q-.203125-.5-.390625-.703125-.171875-.21875-.453125-.375-.15625-.078125-.609375-.140625v-.34375zm11.15625 3.140625q0 1.859375.90625 2.921875.90625 1.046875 2.140625 1.046875.8125 0 1.421875-.4375.609375-.453125 1.015625-1.546875l.28125.171875q-.1875 1.25-1.109375 2.28125-.921875 1.015625-2.296875 1.015625-1.515625 0-2.59375-1.171875-1.0625-1.171875-1.0625-3.140625 0-2.140625 1.09375-3.328125 1.109375-1.203125 2.765625-1.203125 1.40625 0 2.296875.921875.90625.921875.90625 2.46875h-5.765625zm0-.53125h3.859375q-.046875-.796875-.1875-1.125-.234375-.515625-.6875-.796875-.4375-.296875-.9375-.296875-.75 0-1.34375.59375-.59375.578125-.703125 1.625zm9.327454-2.859375v1.875q1.046875-1.875 2.140625-1.875.5 0 .828125.3125.328125.296875.328125.703125 0 .359375-.234375.609375-.234375.234375-.5625.234375t-.71875-.3125q-.390625-.3125-.578125-.3125-.171875 0-.359375.1875-.40625.359375-.84375 1.21875v4q0 .703125.171875 1.046875.109375.25.40625.421875.3125.15625.875.15625v.328125h-4.28125v-.328125q.640625 0 .953125-.203125.234375-.140625.3125-.46875.046875-.140625.046875-.875v-3.234375q0-1.453125-.0625-1.734375-.046875-.28125-.21875-.40625-.15625-.125-.390625-.125-.28125 0-.640625.140625l-.078125-.328125 2.515625-1.03125h.390625z"/><path d="M343.5118 93.65354h112.97638v49.385826H343.5118z"/><path stroke="#000" stroke-linecap="butt" stroke-linejoin="round" d="M343.5118 93.65354h112.97638v49.385826H343.5118z"/><path fill="#000" d="m375.0013 125.26646-4.78125-10.390625v8.25q0 1.140625.25 1.421875.328125.375 1.0625.375h.4375v.34375h-4.296875v-.34375h.4375q.78125 0 1.109375-.46875.203125-.296875.203125-1.328125v-8.078125q0-.8125-.1875-1.171875-.125-.265625-.46875-.4375-.34375-.1875-1.09375-.1875v-.34375h3.5l4.484375 9.671875 4.40625-9.671875h3.5v.34375h-.4375q-.796875 0-1.125.46875-.1875.296875-.1875 1.328125v8.078125q0 1.140625.25 1.421875.34375.375 1.0625.375h.4375v.34375h-5.25v-.34375h.4375q.78125 0 1.109375-.46875.203125-.296875.203125-1.328125v-8.25l-4.765625 10.390625h-.296875zm10.932129-5.203125q0 1.859375.90625 2.921875.90625 1.046875 2.140625 1.046875.8125 0 1.421875-.4375.609375-.453125 1.015625-1.546875l.28125.171875q-.1875 1.25-1.109375 2.28125-.921875 1.015625-2.296875 1.015625-1.515625 0-2.59375-1.171875-1.0625-1.171875-1.0625-3.140625 0-2.140625 1.09375-3.328125 1.109375-1.203125 2.765625-1.203125 1.40625 0 2.296875.921875.90625.921875.90625 2.46875h-5.765625zm0-.53125h3.859375q-.046875-.796875-.1875-1.125-.234375-.515625-.6875-.796875-.4375-.296875-.9375-.296875-.75 0-1.34375.59375-.59375.578125-.703125 1.625zm12.264923-2.859375v2.84375h-.296875q-.34375-1.34375-.890625-1.8125-.53125-.484375-1.375-.484375-.640625 0-1.03125.34375-.390625.328125-.390625.734375 0 .515625.296875.875.28125.375 1.140625.796875l1.328125.640625q1.859375.90625 1.859375 2.375 0 1.140625-.875 1.84375-.859375.6875-1.921875.6875-.765625 0-1.75-.265625-.296875-.09375-.484375-.09375-.21875 0-.328125.234375h-.296875v-2.96875h.296875q.25 1.265625.96875 1.921875.71875.640625 1.609375.640625.640625 0 1.03125-.359375.390625-.375.390625-.90625 0-.625-.4375-1.046875-.4375-.4375-1.765625-1.09375-1.3125-.65625-1.71875-1.171875-.421875-.53125-.421875-1.3125 0-1.03125.703125-1.71875.71875-.703125 1.828125-.703125.5 0 1.203125.21875.453125.125.609375.125t.234375-.0625q.078125-.0625.1875-.28125h.296875zm7.260254 0v2.84375h-.296875q-.34375-1.34375-.890625-1.8125-.53125-.484375-1.375-.484375-.640625 0-1.03125.34375-.390625.328125-.390625.734375 0 .515625.296875.875.28125.375 1.140625.796875l1.328125.640625q1.859375.90625 1.859375 2.375 0 1.140625-.875 1.84375-.859375.6875-1.921875.6875-.765625 0-1.75-.265625-.296875-.09375-.484375-.09375-.21875 0-.328125.234375h-.296875v-2.96875h.296875q.25 1.265625.96875 1.921875.71875.640625 1.609375.640625.640625 0 1.03125-.359375.390625-.375.390625-.90625 0-.625-.4375-1.046875-.4375-.4375-1.765625-1.09375-1.3125-.65625-1.71875-1.171875-.421875-.53125-.421875-1.3125 0-1.03125.703125-1.71875.71875-.703125 1.828125-.703125.5 0 1.203125.21875.453125.125.609375.125t.234375-.0625q.078125-.0625.1875-.28125h.296875zm6.6040344 7.390625q-1.28125 1-1.609375 1.15625-.5.21875-1.046875.21875-.875 0-1.4375-.59375-.546875-.59375-.546875-1.5625 0-.609375.265625-1.046875.375-.625 1.296875-1.171875t3.078125-1.328125v-.328125q0-1.25-.40625-1.703125-.390625-.46875-1.140625-.46875-.578125 0-.921875.3125-.34375.296875-.34375.703125l.015625.53125q0 .421875-.21875.65625-.203125.21875-.546875.21875t-.5625-.234375q-.203125-.234375-.203125-.65625 0-.78125.796875-1.4375.8125-.65625 2.25-.65625 1.109375 0 1.828125.375.53125.28125.796875.890625.15625.390625.15625 1.59375v2.84375q0 1.1875.046875 1.453125t.140625.359375q.109375.09375.25.09375t.25-.0625q.203125-.125.75-.671875v.515625q-1.03125 1.359375-1.953125 1.359375-.453125 0-.71875-.296875-.265625-.3125-.265625-1.0625zm0-.59375v-3.171875q-1.375.546875-1.78125.765625-.71875.40625-1.03125.84375-.296875.4375-.296875.953125 0 .65625.390625 1.09375.390625.421875.890625.421875.703125 0 1.828125-.90625zm5.7805176-1.25q-.765625-.375-1.171875-1.03125-.40625-.671875-.40625-1.484375 0-1.25.921875-2.140625.9375-.890625 2.40625-.890625 1.1875 0 2.0625.59375h1.765625q.390625 0 .453125.015625t.09375.078125q.046875.078125.046875.296875 0 .234375-.03125.328125-.03125.046875-.109375.078125-.0625.015625-.453125.015625h-1.078125q.5.65625.5 1.671875 0 1.171875-.890625 2t-2.390625.828125q-.625 0-1.265625-.1875-.40625.359375-.546875.625-.140625.25-.140625.421875 0 .15625.140625.3125.15625.140625.59375.203125.265625.03125 1.28125.0625 1.875.046875 2.421875.125.859375.125 1.359375.640625.5.5.5 1.25 0 1.03125-.953125 1.9375-1.421875 1.3281174-3.71875 1.3281174-1.75 0-2.96875-.796875-.671875-.453125-.671875-.9531174 0-.21875.09375-.4375.15625-.328125.640625-.9375.0625-.078125.921875-.984375-.46875-.28125-.671875-.5-.1875-.21875-.1875-.5 0-.328125.25-.75.265625-.4375 1.203125-1.21875zm1.59375-5.109375q-.6875 0-1.140625.546875-.453125.53125-.453125 1.640625 0 1.4375.625 2.234375.46875.59375 1.203125.59375.6875 0 1.125-.515625.453125-.515625.453125-1.625 0-1.453125-.625-2.265625-.46875-.609375-1.1875-.609375zm-1.6875 8.15625q-.421875.46875-.640625.859375-.21875.40625-.21875.75 0 .4375.53125.765625.90625.5624924 2.625.5624924 1.640625 0 2.421875-.5781174.78125-.578125.78125-1.234375 0-.484375-.46875-.671875-.46875-.203125-1.875-.25-2.046875-.046875-3.15625-.203125zm8.59375-5.203125q0 1.859375.90625 2.921875.90625 1.046875 2.140625 1.046875.8125 0 1.421875-.4375.609375-.453125 1.015625-1.546875l.28125.171875q-.1875 1.25-1.109375 2.28125-.921875 1.015625-2.296875 1.015625-1.515625 0-2.59375-1.171875-1.0625-1.171875-1.0625-3.140625 0-2.140625 1.09375-3.328125 1.109375-1.203125 2.765625-1.203125 1.40625 0 2.296875.921875.90625.921875.90625 2.46875h-5.765625zm0-.53125h3.859375q-.046875-.796875-.1875-1.125-.234375-.515625-.6875-.796875-.4375-.296875-.9375-.296875-.75 0-1.34375.59375-.59375.578125-.703125 1.625z"/><path fill="#f4cccc" fill-rule="evenodd" d="M343.5118 143.03937h112.97638v29.858276H343.5118z"/><path stroke="#000" stroke-linecap="butt" stroke-linejoin="round" d="M343.5118 143.03937h112.97638v29.858276H343.5118z"/><path fill="#000" d="m386.38818 164.8885-4.78125-10.390625v8.25q0 1.140625.25 1.421875.328125.375 1.0625.375h.4375v.34375h-4.296875v-.34375h.4375q.78125 0 1.109375-.46875.203125-.296875.203125-1.328125v-8.078125q0-.8125-.1875-1.171875-.125-.265625-.46875-.4375-.34375-.1875-1.09375-.1875v-.34375h3.5l4.484375 9.671875 4.40625-9.671875h3.5v.34375h-.4375q-.796875 0-1.125.46875-.1875.296875-.1875 1.328125v8.078125q0 1.140625.25 1.421875.34375.375 1.0625.375h.4375v.34375h-5.25v-.34375h.4375q.78125 0 1.109375-.46875.203125-.296875.203125-1.328125v-8.25l-4.765625 10.390625h-.296875zm17.479004-4.140625h-4.78125l-.828125 1.953125q-.3125.71875-.3125 1.078125 0 .28125.265625.5.265625.203125 1.15625.265625v.34375h-3.890625v-.34375q.78125-.125 1-.34375.46875-.4375 1.03125-1.78125l4.34375-10.171875h.328125l4.296875 10.28125q.515625 1.234375.9375 1.609375t1.1875.40625v.34375h-4.875v-.34375q.734375-.03125.984375-.234375.265625-.21875.265625-.515625 0-.40625-.359375-1.265625l-.75-1.78125zm-.25-.671875-2.09375-4.984375-2.15625 4.984375h4.25zm16.426086-7.828125.28125 4.203125h-.28125q-.5625-1.890625-1.609375-2.71875t-2.515625-.828125q-1.234375 0-2.234375.625-.984375.625-1.5625 2-.5625 1.359375-.5625 3.390625 0 1.671875.53125 2.90625.546875 1.234375 1.625 1.890625t2.46875.65625q1.203125 0 2.109375-.515625.921875-.515625 2.03125-2.046875l.28125.1875q-.921875 1.640625-2.171875 2.40625-1.234375.765625-2.9375.765625-3.078125 0-4.75-2.28125-1.265625-1.6875-1.265625-3.984375 0-1.84375.828125-3.390625.828125-1.5625 2.28125-2.40625 1.453125-.859375 3.171875-.859375 1.34375 0 2.640625.65625.390625.203125.546875.203125.25 0 .4375-.171875.234375-.25.328125-.6875h.328125z"/><path d="M343.5105 219.77428h112.97638v29.858276H343.5105z"/><path stroke="#000" stroke-linecap="butt" stroke-linejoin="round" d="M343.5105 219.77428h112.97638v29.858276H343.5105z"/><path fill="#000" d="m390.036 234.77966 4.546875 4.515625q1.125 1.125 1.90625 1.53125.796875.40625 1.59375.453125v.34375h-5.875v-.34375q.53125 0 .765625-.171875t.234375-.390625q0-.21875-.09375-.390625-.078125-.171875-.5625-.65625l-4.265625-4.21875v3.984375q0 .9375.109375 1.234375.09375.234375.390625.390625.390625.21875.828125.21875h.421875v.34375h-5.265625v-.34375h.4375q.765625 0 1.109375-.4375.21875-.296875.21875-1.40625v-7.984375q0-.9375-.125-1.25-.078125-.21875-.375-.375-.390625-.21875-.828125-.21875h-.4375v-.34375H390.036v.34375h-.421875q-.421875 0-.828125.203125-.28125.15625-.390625.453125-.109375.28125-.109375 1.1875v3.78125q.1875-.171875 1.25-1.15625 2.703125-2.46875 3.265625-3.296875.25-.375.25-.640625 0-.21875-.203125-.375-.1875-.15625-.640625-.15625h-.28125v-.34375h4.53125v.34375q-.390625.015625-.71875.109375t-.8125.390625q-.46875.28125-1.15625.921875-.203125.1875-1.859375 1.859375l-1.875 1.890625zm9.879211 1.640625q0 1.859375.90625 2.921875.90625 1.046875 2.140625 1.046875.8125 0 1.421875-.4375.609375-.453125 1.015625-1.546875l.28125.171875q-.1875 1.25-1.109375 2.28125-.921875 1.015625-2.296875 1.015625-1.515625 0-2.59375-1.171875-1.0625-1.171875-1.0625-3.140625 0-2.140625 1.09375-3.328125 1.109375-1.203125 2.765625-1.203125 1.40625 0 2.296875.921875.90625.921875.90625 2.46875h-5.765625zm0-.53125h3.859375q-.046875-.796875-.1875-1.125-.234375-.515625-.6875-.796875-.4375-.296875-.9375-.296875-.75 0-1.34375.59375-.59375.578125-.703125 1.625zm6.4055176-2.609375h3.890625v.34375h-.1875q-.421875 0-.625.171875t-.203125.4375q0 .359375.296875.984375l2.03125 4.203125 1.875-4.609375q.15625-.359375.15625-.734375 0-.15625-.0625-.234375-.078125-.109375-.234375-.15625-.15625-.0625-.546875-.0625v-.34375h2.71875v.34375q-.34375.03125-.53125.140625-.171875.109375-.390625.40625-.078125.125-.3125.703125l-3.390625 8.328125q-.5 1.203125-1.296875 1.828125t-1.53125.625q-.53125 0-.890625-.3125-.34375-.3125-.34375-.71875 0-.375.25-.609375t.6875-.234375q.3125 0 .828125.203125.359375.140625.453125.140625.28125 0 .59375-.28125.328125-.28125.65625-1.09375l.59375-1.453125-3-6.296875q-.140625-.28125-.4375-.703125-.234375-.3125-.375-.421875-.203125-.140625-.671875-.25v-.34375z"/><path d="M146.14436 123.51181h112.976364v49.385834H146.14436z"/><path stroke="#000" stroke-linecap="butt" stroke-linejoin="round" d="M146.14436 123.51181h112.976364v49.385834H146.14436z"/><path fill="#000" d="m177.63385 155.12473-4.78125-10.390625v8.25q0 1.140625.25 1.421875.328125.375 1.0625.375h.4375v.34375h-4.296875v-.34375h.4375q.78125 0 1.109375-.46875.203125-.296875.203125-1.328125v-8.078125q0-.8125-.1875-1.171875-.125-.265625-.46875-.4375-.34375-.1875-1.09375-.1875v-.34375h3.5l4.484375 9.671875 4.40625-9.671875h3.5v.34375h-.4375q-.796875 0-1.125.46875-.1875.296875-.1875 1.328125v8.078125q0 1.140625.25 1.421875.34375.375 1.0625.375h.4375v.34375h-5.25v-.34375h.4375q.78125 0 1.109375-.46875.203125-.296875.203125-1.328125v-8.25l-4.765625 10.390625h-.296875zm10.932144-5.203125q0 1.859375.90625 2.921875.90625 1.046875 2.140625 1.046875.8125 0 1.421875-.4375.609375-.453125 1.015625-1.546875l.28125.171875q-.1875 1.25-1.109375 2.28125-.921875 1.015625-2.296875 1.015625-1.515625 0-2.59375-1.171875-1.0625-1.171875-1.0625-3.140625 0-2.140625 1.09375-3.328125 1.109375-1.203125 2.765625-1.203125 1.40625 0 2.296875.921875.90625.921875.90625 2.46875h-5.765625zm0-.53125h3.859375q-.046875-.796875-.1875-1.125-.234375-.515625-.6875-.796875-.4375-.296875-.9375-.296875-.75 0-1.34375.59375-.59375.578125-.703125 1.625zm12.264908-2.859375v2.84375h-.296875q-.34375-1.34375-.890625-1.8125-.53125-.484375-1.375-.484375-.640625 0-1.03125.34375-.390625.328125-.390625.734375 0 .515625.296875.875.28125.375 1.140625.796875l1.328125.640625q1.859375.90625 1.859375 2.375 0 1.140625-.875 1.84375-.859375.6875-1.921875.6875-.765625 0-1.75-.265625-.296875-.09375-.484375-.09375-.21875 0-.328125.234375h-.296875v-2.96875h.296875q.25 1.265625.96875 1.921875.71875.640625 1.609375.640625.640625 0 1.03125-.359375.390625-.375.390625-.90625 0-.625-.4375-1.046875-.4375-.4375-1.765625-1.09375-1.3125-.65625-1.71875-1.171875-.421875-.53125-.421875-1.3125 0-1.03125.703125-1.71875.71875-.703125 1.828125-.703125.5 0 1.203125.21875.453125.125.609375.125t.234375-.0625q.078125-.0625.1875-.28125h.296875zm7.260269 0v2.84375h-.296875q-.34375-1.34375-.890625-1.8125-.53125-.484375-1.375-.484375-.640625 0-1.03125.34375-.390625.328125-.390625.734375 0 .515625.296875.875.28125.375 1.140625.796875l1.328125.640625q1.859375.90625 1.859375 2.375 0 1.140625-.875 1.84375-.859375.6875-1.921875.6875-.765625 0-1.75-.265625-.296875-.09375-.484375-.09375-.21875 0-.328125.234375h-.296875v-2.96875h.296875q.25 1.265625.96875 1.921875.71875.640625 1.609375.640625.640625 0 1.03125-.359375.390625-.375.390625-.90625 0-.625-.4375-1.046875-.4375-.4375-1.765625-1.09375-1.3125-.65625-1.71875-1.171875-.421875-.53125-.421875-1.3125 0-1.03125.703125-1.71875.71875-.703125 1.828125-.703125.5 0 1.203125.21875.453125.125.609375.125t.234375-.0625q.078125-.0625.1875-.28125h.296875zm6.604019 7.390625q-1.28125 1-1.609375 1.15625-.5.21875-1.046875.21875-.875 0-1.4375-.59375-.546875-.59375-.546875-1.5625 0-.609375.265625-1.046875.375-.625 1.296875-1.171875t3.078125-1.328125v-.328125q0-1.25-.40625-1.703125-.390625-.46875-1.140625-.46875-.578125 0-.921875.3125-.34375.296875-.34375.703125l.015625.53125q0 .421875-.21875.65625-.203125.21875-.546875.21875t-.5625-.234375q-.203125-.234375-.203125-.65625 0-.78125.796875-1.4375.8125-.65625 2.25-.65625 1.109375 0 1.828125.375.53125.28125.796875.890625.15625.390625.15625 1.59375v2.84375q0 1.1875.046875 1.453125t.140625.359375q.109375.09375.25.09375t.25-.0625q.203125-.125.75-.671875v.515625q-1.03125 1.359375-1.953125 1.359375-.453125 0-.71875-.296875-.265625-.3125-.265625-1.0625zm0-.59375v-3.171875q-1.375.546875-1.78125.765625-.71875.40625-1.03125.84375-.296875.4375-.296875.953125 0 .65625.390625 1.09375.390625.421875.890625.421875.703125 0 1.828125-.90625zm5.780533-1.25q-.765625-.375-1.171875-1.03125-.40625-.671875-.40625-1.484375 0-1.25.921875-2.140625.9375-.890625 2.40625-.890625 1.1875 0 2.0625.59375h1.765625q.390625 0 .453125.015625t.09375.078125q.046875.078125.046875.296875 0 .234375-.03125.328125-.03125.046875-.109375.078125-.0625.015625-.453125.015625h-1.078125q.5.65625.5 1.671875 0 1.171875-.890625 2t-2.390625.828125q-.625 0-1.265625-.1875-.40625.359375-.546875.625-.140625.25-.140625.421875 0 .15625.140625.3125.15625.140625.59375.203125.265625.03125 1.28125.0625 1.875.046875 2.421875.125.859375.125 1.359375.640625.5.5.5 1.25 0 1.03125-.953125 1.9375-1.421875 1.328125-3.71875 1.328125-1.75 0-2.96875-.796875-.671875-.453125-.671875-.953125 0-.21875.09375-.4375.15625-.328125.640625-.9375.0625-.078125.921875-.984375-.46875-.28125-.671875-.5-.1875-.21875-.1875-.5 0-.328125.25-.75.265625-.4375 1.203125-1.21875zm1.59375-5.109375q-.6875 0-1.140625.546875-.453125.53125-.453125 1.640625 0 1.4375.625 2.234375.46875.59375 1.203125.59375.6875 0 1.125-.515625.453125-.515625.453125-1.625 0-1.453125-.625-2.265625-.46875-.609375-1.1875-.609375zm-1.6875 8.15625q-.421875.46875-.640625.859375-.21875.40625-.21875.75 0 .4375.53125.765625.90625.5625 2.625.5625 1.640625 0 2.421875-.578125t.78125-1.234375q0-.484375-.46875-.671875-.46875-.203125-1.875-.25-2.046875-.046875-3.15625-.203125zm8.59375-5.203125q0 1.859375.90625 2.921875.90625 1.046875 2.140625 1.046875.8125 0 1.421875-.4375.609375-.453125 1.015625-1.546875l.28125.171875q-.1875 1.25-1.109375 2.28125-.921875 1.015625-2.296875 1.015625-1.515625 0-2.59375-1.171875-1.0625-1.171875-1.0625-3.140625 0-2.140625 1.09375-3.328125 1.109375-1.203125 2.765625-1.203125 1.40625 0 2.296875.921875.90625.921875.90625 2.46875h-5.765625zm0-.53125h3.859375q-.046875-.796875-.1875-1.125-.234375-.515625-.6875-.796875-.4375-.296875-.9375-.296875-.75 0-1.34375.59375-.59375.578125-.703125 1.625z"/><path fill="#f4cccc" fill-rule="evenodd" d="M146.13124 296.5092h112.976364v29.858276H146.13124z"/><path stroke="#000" stroke-linecap="butt" stroke-linejoin="round" d="M146.13124 296.5092h112.976364v29.858276H146.13124z"/><path fill="#000" d="m189.0076 318.3583-4.78125-10.390625v8.25q0 1.140625.25 1.421875.328125.375 1.0625.375h.4375v.34375h-4.296875v-.34375h.4375q.78125 0 1.109375-.46875.203125-.296875.203125-1.328125v-8.078125q0-.8125-.1875-1.171875-.125-.265625-.46875-.4375-.34375-.1875-1.09375-.1875v-.34375h3.5l4.484375 9.671875 4.40625-9.671875h3.5v.34375h-.4375q-.796875 0-1.125.46875-.1875.296875-.1875 1.328125v8.078125q0 1.140625.25 1.421875.34375.375 1.0625.375h.4375v.34375h-5.25v-.34375h.4375q.78125 0 1.109375-.46875.203125-.296875.203125-1.328125v-8.25l-4.765625 10.390625h-.296875zm17.47902-4.140625h-4.78125l-.828125 1.953125q-.3125.71875-.3125 1.078125 0 .28125.265625.5.265625.203125 1.15625.265625v.34375h-3.890625v-.34375q.78125-.125 1-.34375.46875-.4375 1.03125-1.78125l4.34375-10.171875h.328125l4.296875 10.28125q.515625 1.234375.9375 1.609375t1.1875.40625v.34375h-4.875v-.34375q.734375-.03125.984375-.234375.265625-.21875.265625-.515625 0-.40625-.359375-1.265625l-.75-1.78125zm-.25-.671875-2.09375-4.984375-2.15625 4.984375h4.25zm16.426071-7.828125.28125 4.203125h-.28125q-.5625-1.890625-1.609375-2.71875t-2.515625-.828125q-1.234375 0-2.234375.625-.984375.625-1.5625 2-.5625 1.359375-.5625 3.390625 0 1.671875.53125 2.90625.546875 1.234375 1.625 1.890625t2.46875.65625q1.203125 0 2.109375-.515625.921875-.515625 2.03125-2.046875l.28125.1875q-.921875 1.640625-2.171875 2.40625-1.234375.765625-2.9375.765625-3.078125 0-4.75-2.28125-1.265625-1.6875-1.265625-3.984375 0-1.84375.828125-3.390625.828125-1.5625 2.28125-2.40625 1.453125-.859375 3.171875-.859375 1.34375 0 2.640625.65625.390625.203125.546875.203125.25 0 .4375-.171875.234375-.25.328125-.6875h.328125z"/><path d="M146.13124 210.0105h112.976364v49.385834H146.13124z"/><path stroke="#000" stroke-linecap="butt" stroke-linejoin="round" d="M146.13124 210.0105h112.976364v49.385834H146.13124z"/><path fill="#000" d="m189.0076 230.62341-4.78125-10.390625v8.25q0 1.140625.25 1.421875.328125.375 1.0625.375h.4375v.34375h-4.296875v-.34375h.4375q.78125 0 1.109375-.46875.203125-.296875.203125-1.328125v-8.078125q0-.8125-.1875-1.171875-.125-.265625-.46875-.4375-.34375-.1875-1.09375-.1875v-.34375h3.5l4.484375 9.671875 4.40625-9.671875h3.5v.34375h-.4375q-.796875 0-1.125.46875-.1875.296875-.1875 1.328125v8.078125q0 1.140625.25 1.421875.34375.375 1.0625.375h.4375v.34375h-5.25v-.34375h.4375q.78125 0 1.109375-.46875.203125-.296875.203125-1.328125v-8.25l-4.765625 10.390625h-.296875zm17.47902-4.140625h-4.78125l-.828125 1.953125q-.3125.71875-.3125 1.078125 0 .28125.265625.5.265625.203125 1.15625.265625v.34375h-3.890625v-.34375q.78125-.125 1-.34375.46875-.4375 1.03125-1.78125l4.34375-10.171875h.328125l4.296875 10.28125q.515625 1.234375.9375 1.609375t1.1875.40625v.34375h-4.875v-.34375q.734375-.03125.984375-.234375.265625-.21875.265625-.515625 0-.40625-.359375-1.265625l-.75-1.78125zm-.25-.671875-2.09375-4.984375-2.15625 4.984375h4.25zm16.426071-7.828125.28125 4.203125h-.28125q-.5625-1.890625-1.609375-2.71875t-2.515625-.828125q-1.234375 0-2.234375.625-.984375.625-1.5625 2-.5625 1.359375-.5625 3.390625 0 1.671875.53125 2.90625.546875 1.234375 1.625 1.890625t2.46875.65625q1.203125 0 2.109375-.515625.921875-.515625 2.03125-2.046875l.28125.1875q-.921875 1.640625-2.171875 2.40625-1.234375.765625-2.9375.765625-3.078125 0-4.75-2.28125-1.265625-1.6875-1.265625-3.984375 0-1.84375.828125-3.390625.828125-1.5625 2.28125-2.40625 1.453125-.859375 3.171875-.859375 1.34375 0 2.640625.65625.390625.203125.546875.203125.25 0 .4375-.171875.234375-.25.328125-.6875h.328125zM172.285 248.48279h-4.78125l-.828125 1.953125q-.3125.71875-.3125 1.078125 0 .28125.265625.5.265625.203125 1.15625.265625v.34375h-3.890625v-.34375q.78125-.125 1-.34375.46875-.4375 1.03125-1.78125l4.34375-10.171875h.328125l4.296875 10.28125q.515625 1.234375.9375 1.609375t1.1875.40625v.34375h-4.875v-.34375q.734375-.03125.984375-.234375.265625-.21875.265625-.515625 0-.40625-.359375-1.265625l-.75-1.78125zm-.25-.671875-2.09375-4.984375-2.15625 4.984375h4.25zm8.644821-8.140625v11.0625q0 .78125.109375 1.046875.125.25.359375.390625.234375.125.875.125v.328125h-4.09375v-.328125q.578125 0 .78125-.109375.21875-.125.328125-.390625.125-.28125.125-1.0625v-7.578125q0-1.40625-.0625-1.734375t-.203125-.4375q-.140625-.125-.359375-.125-.234375 0-.609375.15625l-.140625-.328125 2.484375-1.015625h.40625zm4.542679 9.90625q-.765625-.375-1.171875-1.03125-.40625-.671875-.40625-1.484375 0-1.25.921875-2.140625.9375-.890625 2.40625-.890625 1.1875 0 2.0625.59375h1.765625q.390625 0 .453125.015625t.09375.078125q.046875.078125.046875.296875 0 .234375-.03125.328125-.03125.046875-.109375.078125-.0625.015625-.453125.015625H189.7225q.5.65625.5 1.671875 0 1.171875-.890625 2t-2.390625.828125q-.625 0-1.265625-.1875-.40625.359375-.546875.625-.140625.25-.140625.421875 0 .15625.140625.3125.15625.140625.59375.203125.265625.03125 1.28125.0625 1.875.046875 2.421875.125.859375.125 1.359375.640625.5.5.5 1.25 0 1.03125-.953125 1.9375-1.421875 1.328125-3.71875 1.328125-1.75 0-2.96875-.796875-.671875-.453125-.671875-.953125 0-.21875.09375-.4375.15625-.328125.640625-.9375.0625-.078125.921875-.984375-.46875-.28125-.671875-.5-.1875-.21875-.1875-.5 0-.328125.25-.75.265625-.4375 1.203125-1.21875zm1.59375-5.109375q-.6875 0-1.140625.546875-.453125.53125-.453125 1.640625 0 1.4375.625 2.234375.46875.59375 1.203125.59375.6875 0 1.125-.515625.453125-.515625.453125-1.625 0-1.453125-.625-2.265625-.46875-.609375-1.1875-.609375zm-1.6875 8.15625q-.421875.46875-.640625.859375-.21875.40625-.21875.75 0 .4375.53125.765625.90625.5625 2.625.5625 1.640625 0 2.421875-.578125t.78125-1.234375q0-.484375-.46875-.671875-.46875-.203125-1.875-.25-2.046875-.046875-3.15625-.203125zm11.28125-8.59375q1.890625 0 3.03125 1.4375.984375 1.234375.984375 2.828125 0 1.125-.546875 2.28125-.53125 1.140625-1.484375 1.71875-.9375.578125-2.09375.578125-1.890625 0-3-1.5-.9375-1.265625-.9375-2.84375 0-1.140625.5625-2.265625.578125-1.140625 1.5-1.6875.9375-.546875 1.984375-.546875zm-.296875.59375q-.46875 0-.96875.296875-.484375.28125-.78125 1t-.296875 1.84375q0 1.828125.71875 3.15625.71875 1.3125 1.90625 1.3125.890625 0 1.453125-.71875.578125-.734375.578125-2.515625 0-2.21875-.953125-3.5-.640625-.875-1.65625-.875zm7.984375-.59375v1.875q1.046875-1.875 2.140625-1.875.5 0 .828125.3125.328125.296875.328125.703125 0 .359375-.234375.609375-.234375.234375-.5625.234375t-.71875-.3125q-.390625-.3125-.578125-.3125-.171875 0-.359375.1875-.40625.359375-.84375 1.21875v4q0 .703125.171875 1.046875.109375.25.40625.421875.3125.15625.875.15625v.328125h-4.28125v-.328125q.640625 0 .953125-.203125.234375-.140625.3125-.46875.046875-.140625.046875-.875v-3.234375q0-1.453125-.0625-1.734375-.046875-.28125-.21875-.40625-.15625-.125-.390625-.125-.28125 0-.640625.140625l-.078125-.328125 2.515625-1.03125h.390625zm5.884552-4.359375q.390625 0 .65625.265625t.265625.65625q0 .375-.265625.65625-.265625.265625-.65625.265625-.375 0-.65625-.265625-.265625-.28125-.265625-.65625 0-.390625.265625-.65625t.65625-.265625zm.765625 4.359375v6.703125q0 .78125.109375 1.046875t.328125.390625q.234375.125.828125.125v.328125h-4.0625v-.328125q.609375 0 .8125-.109375.21875-.125.34375-.390625.125-.28125.125-1.0625v-3.203125q0-1.359375-.078125-1.765625-.078125-.296875-.21875-.40625-.125-.109375-.359375-.109375-.265625 0-.625.140625l-.125-.328125 2.515625-1.03125h.40625zm4.714554-2.5v2.75h1.953125v.640625h-1.953125v5.40625q0 .8125.234375 1.09375t.59375.28125q.3125 0 .59375-.1875t.4375-.546875h.34375q-.3125.890625-.90625 1.34375-.578125.453125-1.1875.453125-.421875 0-.828125-.234375-.390625-.234375-.59375-.65625-.1875-.4375-.1875-1.34375v-5.609375h-1.3125v-.296875q.5-.203125 1.015625-.6875.53125-.484375.9375-1.125.203125-.359375.578125-1.28125h.28125zm5.214554-1.859375v6.109375q1.015625-1.125 1.609375-1.4375t1.1875-.3125q.703125 0 1.203125.390625.515625.390625.765625 1.234375.171875.578125.171875 2.125v2.953125q0 .796875.125 1.09375.09375.21875.3125.34375t.796875.125v.328125h-4.09375v-.328125h.1875q.59375 0 .8125-.171875.234375-.1875.328125-.53125.015625-.140625.015625-.859375v-2.953125q0-1.359375-.140625-1.78125-.140625-.4375-.453125-.640625-.296875-.21875-.734375-.21875-.453125 0-.9375.234375t-1.15625.953125v4.40625q0 .859375.09375 1.078125.09375.203125.359375.34375t.890625.140625v.328125h-4.125v-.328125q.546875 0 .875-.171875.171875-.09375.28125-.34375.109375-.265625.109375-1.046875v-7.546875q0-1.4375-.0625-1.765625t-.203125-.4375q-.140625-.125-.390625-.125-.1875 0-.609375.15625l-.125-.328125 2.484375-1.015625h.421875zm9.359375 6.140625q.90625-.90625 1.078125-1.046875.40625-.34375.875-.53125.484375-.203125.9375-.203125.78125 0 1.34375.46875.578125.453125.765625 1.3125.9375-1.09375 1.578125-1.4375.65625-.34375 1.34375-.34375.65625 0 1.171875.34375t.8125 1.125q.203125.515625.203125 1.65625v3.578125q0 .78125.125 1.078125.078125.203125.328125.34375t.796875.140625v.328125h-4.109375v-.328125h.171875q.53125 0 .84375-.203125.203125-.15625.296875-.46875.03125-.15625.03125-.890625v-3.578125q0-1.03125-.234375-1.453125-.359375-.578125-1.140625-.578125-.484375 0-.984375.25-.484375.234375-1.171875.890625l-.015625.09375.015625.40625v3.96875q0 .859375.09375 1.078125.09375.203125.359375.34375t.90625.140625v.328125h-4.21875v-.328125q.6875 0 .953125-.15625.265625-.171875.359375-.5.046875-.15625.046875-.90625v-3.578125q0-1.03125-.296875-1.46875-.40625-.59375-1.125-.59375-.5 0-.96875.265625-.765625.40625-1.171875.90625v4.46875q0 .828125.109375 1.078125.109375.234375.328125.359375.234375.125.921875.125v.328125h-4.125v-.328125q.5625 0 .796875-.125t.34375-.390625q.125-.265625.125-1.046875v-3.1875q0-1.375-.09375-1.765625-.0625-.3125-.203125-.421875-.125-.109375-.359375-.109375-.265625 0-.609375.140625l-.140625-.328125 2.515625-1.03125h.390625v1.78125z"/><path d="M202.63255 172.89764v37.102356"/><path stroke="#000" stroke-linecap="butt" stroke-linejoin="round" d="M202.63255 172.89764v31.102356"/><path fill="#000" fill-rule="evenodd" stroke="#000" stroke-linecap="butt" d="m200.98082 204 1.6517334 4.538101L204.2842715 204z"/><path d="M343.5105 234.70341h-84.409454"/><path stroke="#000" stroke-linecap="butt" stroke-linejoin="round" d="M343.5105 234.70341h-78.409454"/><path fill="#000" fill-rule="evenodd" stroke="#000" stroke-linecap="butt" d="m265.10104 233.05168-4.538086 1.6517334 4.538086 1.6517334z"/><path d="M202.61942 259.39633v37.102356"/><path stroke="#000" stroke-linecap="butt" stroke-linejoin="round" d="M202.61942 259.39633v31.102356"/><path fill="#000" fill-rule="evenodd" stroke="#000" stroke-linecap="butt" d="m200.9677 290.4987 1.6517181 4.538086 1.6517334-4.538086z"/><path d="M259.12073 148.20473h42.19574v-29.858269h42.18222"/><path stroke="#000" stroke-linecap="butt" stroke-linejoin="round" d="M259.12073 148.20473h42.19574v-29.858269h36.18222"/><path fill="#000" fill-rule="evenodd" stroke="#000" stroke-linecap="butt" d="m337.4987 119.99819 4.538086-1.6517334-4.538086-1.6517334z"/><path d="M259.1076 311.43832h57.253235V157.958h27.15622"/><path stroke="#000" stroke-linecap="butt" stroke-linejoin="round" d="M259.1076 311.43832h57.253235V157.958h21.15622"/><path fill="#000" fill-rule="evenodd" stroke="#000" stroke-linecap="butt" d="m337.51706 159.60974 4.538086-1.6517334-4.538086-1.6517334z"/><path d="M540.8924 123.51181h112.97638v49.385834H540.8924z"/><path stroke="#000" stroke-linecap="butt" stroke-linejoin="round" d="M540.8924 123.51181h112.97638v49.385834H540.8924z"/><path fill="#000" d="m572.3819 155.12473-4.78125-10.390625v8.25q0 1.140625.25 1.421875.328125.375 1.0625.375h.4375v.34375h-4.296875v-.34375h.4375q.78125 0 1.109375-.46875.203125-.296875.203125-1.328125v-8.078125q0-.8125-.1875-1.171875-.125-.265625-.46875-.4375-.34375-.1875-1.09375-.1875v-.34375h3.5l4.484375 9.671875 4.40625-9.671875h3.5v.34375h-.4375q-.796875 0-1.125.46875-.1875.296875-.1875 1.328125v8.078125q0 1.140625.25 1.421875.34375.375 1.0625.375h.4375v.34375h-5.25v-.34375h.4375q.78125 0 1.109375-.46875.203125-.296875.203125-1.328125v-8.25l-4.765625 10.390625h-.296875zm10.932129-5.203125q0 1.859375.90625 2.921875.90625 1.046875 2.140625 1.046875.8125 0 1.421875-.4375.609375-.453125 1.015625-1.546875l.28125.171875q-.1875 1.25-1.109375 2.28125-.921875 1.015625-2.296875 1.015625-1.515625 0-2.59375-1.171875-1.0625-1.171875-1.0625-3.140625 0-2.140625 1.09375-3.328125 1.109375-1.203125 2.765625-1.203125 1.40625 0 2.296875.921875.90625.921875.90625 2.46875h-5.765625zm0-.53125h3.859375q-.046875-.796875-.1875-1.125-.234375-.515625-.6875-.796875-.4375-.296875-.9375-.296875-.75 0-1.34375.59375-.59375.578125-.703125 1.625zm12.264893-2.859375v2.84375h-.296875q-.34375-1.34375-.890625-1.8125-.53125-.484375-1.375-.484375-.640625 0-1.03125.34375-.390625.328125-.390625.734375 0 .515625.296875.875.28125.375 1.140625.796875l1.328125.640625q1.859375.90625 1.859375 2.375 0 1.140625-.875 1.84375-.859375.6875-1.921875.6875-.765625 0-1.75-.265625-.296875-.09375-.484375-.09375-.21875 0-.328125.234375h-.296875v-2.96875h.296875q.25 1.265625.96875 1.921875.71875.640625 1.609375.640625.640625 0 1.03125-.359375.390625-.375.390625-.90625 0-.625-.4375-1.046875-.4375-.4375-1.765625-1.09375-1.3125-.65625-1.71875-1.171875-.421875-.53125-.421875-1.3125 0-1.03125.703125-1.71875.71875-.703125 1.828125-.703125.5 0 1.203125.21875.453125.125.609375.125t.234375-.0625q.078125-.0625.1875-.28125h.296875zm7.260254 0v2.84375h-.296875q-.34375-1.34375-.890625-1.8125-.53125-.484375-1.375-.484375-.640625 0-1.03125.34375-.390625.328125-.390625.734375 0 .515625.296875.875.28125.375 1.140625.796875l1.328125.640625q1.859375.90625 1.859375 2.375 0 1.140625-.875 1.84375-.859375.6875-1.921875.6875-.765625 0-1.75-.265625-.296875-.09375-.484375-.09375-.21875 0-.328125.234375h-.296875v-2.96875h.296875q.25 1.265625.96875 1.921875.71875.640625 1.609375.640625.640625 0 1.03125-.359375.390625-.375.390625-.90625 0-.625-.4375-1.046875-.4375-.4375-1.765625-1.09375-1.3125-.65625-1.71875-1.171875-.421875-.53125-.421875-1.3125 0-1.03125.703125-1.71875.71875-.703125 1.828125-.703125.5 0 1.203125.21875.453125.125.609375.125t.234375-.0625q.078125-.0625.1875-.28125h.296875zm6.604065 7.390625q-1.28125 1-1.609375 1.15625-.5.21875-1.046875.21875-.875 0-1.4375-.59375-.546875-.59375-.546875-1.5625 0-.609375.265625-1.046875.375-.625 1.296875-1.171875t3.078125-1.328125v-.328125q0-1.25-.40625-1.703125-.390625-.46875-1.140625-.46875-.578125 0-.921875.3125-.34375.296875-.34375.703125l.015625.53125q0 .421875-.21875.65625-.203125.21875-.546875.21875t-.5625-.234375q-.203125-.234375-.203125-.65625 0-.78125.796875-1.4375.8125-.65625 2.25-.65625 1.109375 0 1.828125.375.53125.28125.796875.890625.15625.390625.15625 1.59375v2.84375q0 1.1875.046875 1.453125t.140625.359375q.109375.09375.25.09375t.25-.0625q.203125-.125.75-.671875v.515625q-1.03125 1.359375-1.953125 1.359375-.453125 0-.71875-.296875-.265625-.3125-.265625-1.0625zm0-.59375v-3.171875q-1.375.546875-1.78125.765625-.71875.40625-1.03125.84375-.296875.4375-.296875.953125 0 .65625.390625 1.09375.390625.421875.890625.421875.703125 0 1.828125-.90625zm5.7805176-1.25q-.765625-.375-1.171875-1.03125-.40625-.671875-.40625-1.484375 0-1.25.921875-2.140625.9375-.890625 2.40625-.890625 1.1875 0 2.0625.59375h1.765625q.390625 0 .453125.015625t.09375.078125q.046875.078125.046875.296875 0 .234375-.03125.328125-.03125.046875-.109375.078125-.0625.015625-.453125.015625h-1.078125q.5.65625.5 1.671875 0 1.171875-.890625 2t-2.390625.828125q-.625 0-1.265625-.1875-.40625.359375-.546875.625-.140625.25-.140625.421875 0 .15625.140625.3125.15625.140625.59375.203125.265625.03125 1.28125.0625 1.875.046875 2.421875.125.859375.125 1.359375.640625.5.5.5 1.25 0 1.03125-.953125 1.9375-1.421875 1.328125-3.71875 1.328125-1.75 0-2.96875-.796875-.671875-.453125-.671875-.953125 0-.21875.09375-.4375.15625-.328125.640625-.9375.0625-.078125.921875-.984375-.46875-.28125-.671875-.5-.1875-.21875-.1875-.5 0-.328125.25-.75.265625-.4375 1.203125-1.21875zm1.59375-5.109375q-.6875 0-1.140625.546875-.453125.53125-.453125 1.640625 0 1.4375.625 2.234375.46875.59375 1.203125.59375.6875 0 1.125-.515625.453125-.515625.453125-1.625 0-1.453125-.625-2.265625-.46875-.609375-1.1875-.609375zm-1.6875 8.15625q-.421875.46875-.640625.859375-.21875.40625-.21875.75 0 .4375.53125.765625.90625.5625 2.625.5625 1.640625 0 2.421875-.578125t.78125-1.234375q0-.484375-.46875-.671875-.46875-.203125-1.875-.25-2.046875-.046875-3.15625-.203125zm8.59375-5.203125q0 1.859375.90625 2.921875.90625 1.046875 2.140625 1.046875.8125 0 1.421875-.4375.609375-.453125 1.015625-1.546875l.28125.171875q-.1875 1.25-1.109375 2.28125-.921875 1.015625-2.296875 1.015625-1.515625 0-2.59375-1.171875-1.0625-1.171875-1.0625-3.140625 0-2.140625 1.09375-3.328125 1.109375-1.203125 2.765625-1.203125 1.40625 0 2.296875.921875.90625.921875.90625 2.46875h-5.765625zm0-.53125h3.859375q-.046875-.796875-.1875-1.125-.234375-.515625-.6875-.796875-.4375-.296875-.9375-.296875-.75 0-1.34375.59375-.59375.578125-.703125 1.625z"/><path fill="#cfe2f3" fill-rule="evenodd" d="M540.8793 296.5092h112.97638v29.858276H540.8793z"/><path stroke="#000" stroke-linecap="butt" stroke-linejoin="round" d="M540.8793 296.5092h112.97638v29.858276H540.8793z"/><path fill="#000" d="m583.7556 318.3583-4.78125-10.390625v8.25q0 1.140625.25 1.421875.328125.375 1.0625.375h.4375v.34375h-4.296875v-.34375h.4375q.78125 0 1.109375-.46875.203125-.296875.203125-1.328125v-8.078125q0-.8125-.1875-1.171875-.125-.265625-.46875-.4375-.34375-.1875-1.09375-.1875v-.34375h3.5l4.484375 9.671875 4.40625-9.671875h3.5v.34375h-.4375q-.796875 0-1.125.46875-.1875.296875-.1875 1.328125v8.078125q0 1.140625.25 1.421875.34375.375 1.0625.375h.4375v.34375h-5.25v-.34375h.4375q.78125 0 1.109375-.46875.203125-.296875.203125-1.328125v-8.25l-4.765625 10.390625h-.296875zm17.479004-4.140625h-4.78125l-.828125 1.953125q-.3125.71875-.3125 1.078125 0 .28125.265625.5.265625.203125 1.15625.265625v.34375h-3.890625v-.34375q.78125-.125 1-.34375.46875-.4375 1.03125-1.78125l4.34375-10.171875h.328125l4.296875 10.28125q.515625 1.234375.9375 1.609375t1.1875.40625v.34375h-4.875v-.34375q.734375-.03125.984375-.234375.265625-.21875.265625-.515625 0-.40625-.359375-1.265625l-.75-1.78125zm-.25-.671875-2.09375-4.984375-2.15625 4.984375h4.25zm16.426086-7.828125.28125 4.203125h-.28125q-.5625-1.890625-1.609375-2.71875t-2.515625-.828125q-1.234375 0-2.234375.625-.984375.625-1.5625 2-.5625 1.359375-.5625 3.390625 0 1.671875.53125 2.90625.546875 1.234375 1.625 1.890625t2.46875.65625q1.203125 0 2.109375-.515625.921875-.515625 2.03125-2.046875l.28125.1875q-.921875 1.640625-2.171875 2.40625-1.234375.765625-2.9375.765625-3.078125 0-4.75-2.28125-1.265625-1.6875-1.265625-3.984375 0-1.84375.828125-3.390625.828125-1.5625 2.28125-2.40625 1.453125-.859375 3.171875-.859375 1.34375 0 2.640625.65625.390625.203125.546875.203125.25 0 .4375-.171875.234375-.25.328125-.6875h.328125z"/><path d="M540.8793 210.0105h112.97638v49.385834H540.8793z"/><path stroke="#000" stroke-linecap="butt" stroke-linejoin="round" d="M540.8793 210.0105h112.97638v49.385834H540.8793z"/><path fill="#000" d="m583.7556 230.62341-4.78125-10.390625v8.25q0 1.140625.25 1.421875.328125.375 1.0625.375h.4375v.34375h-4.296875v-.34375h.4375q.78125 0 1.109375-.46875.203125-.296875.203125-1.328125v-8.078125q0-.8125-.1875-1.171875-.125-.265625-.46875-.4375-.34375-.1875-1.09375-.1875v-.34375h3.5l4.484375 9.671875 4.40625-9.671875h3.5v.34375h-.4375q-.796875 0-1.125.46875-.1875.296875-.1875 1.328125v8.078125q0 1.140625.25 1.421875.34375.375 1.0625.375h.4375v.34375h-5.25v-.34375h.4375q.78125 0 1.109375-.46875.203125-.296875.203125-1.328125v-8.25l-4.765625 10.390625h-.296875zm17.479004-4.140625h-4.78125l-.828125 1.953125q-.3125.71875-.3125 1.078125 0 .28125.265625.5.265625.203125 1.15625.265625v.34375h-3.890625v-.34375q.78125-.125 1-.34375.46875-.4375 1.03125-1.78125l4.34375-10.171875h.328125l4.296875 10.28125q.515625 1.234375.9375 1.609375t1.1875.40625v.34375h-4.875v-.34375q.734375-.03125.984375-.234375.265625-.21875.265625-.515625 0-.40625-.359375-1.265625l-.75-1.78125zm-.25-.671875-2.09375-4.984375-2.15625 4.984375h4.25zm16.426086-7.828125.28125 4.203125h-.28125q-.5625-1.890625-1.609375-2.71875t-2.515625-.828125q-1.234375 0-2.234375.625-.984375.625-1.5625 2-.5625 1.359375-.5625 3.390625 0 1.671875.53125 2.90625.546875 1.234375 1.625 1.890625t2.46875.65625q1.203125 0 2.109375-.515625.921875-.515625 2.03125-2.046875l.28125.1875q-.921875 1.640625-2.171875 2.40625-1.234375.765625-2.9375.765625-3.078125 0-4.75-2.28125-1.265625-1.6875-1.265625-3.984375 0-1.84375.828125-3.390625.828125-1.5625 2.28125-2.40625 1.453125-.859375 3.171875-.859375 1.34375 0 2.640625.65625.390625.203125.546875.203125.25 0 .4375-.171875.234375-.25.328125-.6875h.328125zM567.033 248.48279h-4.78125l-.828125 1.953125q-.3125.71875-.3125 1.078125 0 .28125.265625.5.265625.203125 1.15625.265625v.34375h-3.890625v-.34375q.78125-.125 1-.34375.46875-.4375 1.03125-1.78125l4.34375-10.171875h.328125l4.296875 10.28125q.515625 1.234375.9375 1.609375t1.1875.40625v.34375h-4.875v-.34375q.734375-.03125.984375-.234375.265625-.21875.265625-.515625 0-.40625-.359375-1.265625l-.75-1.78125zm-.25-.671875-2.09375-4.984375-2.15625 4.984375h4.25zm8.644836-8.140625v11.0625q0 .78125.109375 1.046875.125.25.359375.390625.234375.125.875.125v.328125h-4.09375v-.328125q.578125 0 .78125-.109375.21875-.125.328125-.390625.125-.28125.125-1.0625v-7.578125q0-1.40625-.0625-1.734375t-.203125-.4375q-.140625-.125-.359375-.125-.234375 0-.609375.15625l-.140625-.328125 2.484375-1.015625h.40625zm4.5426636 9.90625q-.765625-.375-1.171875-1.03125-.40625-.671875-.40625-1.484375 0-1.25.921875-2.140625.9375-.890625 2.40625-.890625 1.1875 0 2.0625.59375h1.765625q.390625 0 .453125.015625t.09375.078125q.046875.078125.046875.296875 0 .234375-.03125.328125-.03125.046875-.109375.078125-.0625.015625-.453125.015625h-1.078125q.5.65625.5 1.671875 0 1.171875-.890625 2t-2.390625.828125q-.625 0-1.265625-.1875-.40625.359375-.546875.625-.140625.25-.140625.421875 0 .15625.140625.3125.15625.140625.59375.203125.265625.03125 1.28125.0625 1.875.046875 2.421875.125.859375.125 1.359375.640625.5.5.5 1.25 0 1.03125-.953125 1.9375-1.421875 1.328125-3.71875 1.328125-1.75 0-2.96875-.796875-.671875-.453125-.671875-.953125 0-.21875.09375-.4375.15625-.328125.640625-.9375.0625-.078125.921875-.984375-.46875-.28125-.671875-.5-.1875-.21875-.1875-.5 0-.328125.25-.75.265625-.4375 1.203125-1.21875zm1.59375-5.109375q-.6875 0-1.140625.546875-.453125.53125-.453125 1.640625 0 1.4375.625 2.234375.46875.59375 1.203125.59375.6875 0 1.125-.515625.453125-.515625.453125-1.625 0-1.453125-.625-2.265625-.46875-.609375-1.1875-.609375zm-1.6875 8.15625q-.421875.46875-.640625.859375-.21875.40625-.21875.75 0 .4375.53125.765625.90625.5625 2.625.5625 1.640625 0 2.421875-.578125t.78125-1.234375q0-.484375-.46875-.671875-.46875-.203125-1.875-.25-2.046875-.046875-3.15625-.203125zm11.28125-8.59375q1.890625 0 3.03125 1.4375.984375 1.234375.984375 2.828125 0 1.125-.546875 2.28125-.53125 1.140625-1.484375 1.71875-.9375.578125-2.09375.578125-1.890625 0-3-1.5-.9375-1.265625-.9375-2.84375 0-1.140625.5625-2.265625.578125-1.140625 1.5-1.6875.9375-.546875 1.984375-.546875zm-.296875.59375q-.46875 0-.96875.296875-.484375.28125-.78125 1t-.296875 1.84375q0 1.828125.71875 3.15625.71875 1.3125 1.90625 1.3125.890625 0 1.453125-.71875.578125-.734375.578125-2.515625 0-2.21875-.953125-3.5-.640625-.875-1.65625-.875zm7.984375-.59375v1.875q1.046875-1.875 2.140625-1.875.5 0 .828125.3125.328125.296875.328125.703125 0 .359375-.234375.609375-.234375.234375-.5625.234375t-.71875-.3125q-.390625-.3125-.578125-.3125-.171875 0-.359375.1875-.40625.359375-.84375 1.21875v4q0 .703125.171875 1.046875.109375.25.40625.421875.3125.15625.875.15625v.328125h-4.28125v-.328125q.640625 0 .953125-.203125.234375-.140625.3125-.46875.046875-.140625.046875-.875v-3.234375q0-1.453125-.0625-1.734375-.046875-.28125-.21875-.40625-.15625-.125-.390625-.125-.28125 0-.640625.140625l-.078125-.328125 2.515625-1.03125h.390625zm5.8845825-4.359375q.390625 0 .65625.265625t.265625.65625q0 .375-.265625.65625-.265625.265625-.65625.265625-.375 0-.65625-.265625-.265625-.28125-.265625-.65625 0-.390625.265625-.65625t.65625-.265625zm.765625 4.359375v6.703125q0 .78125.109375 1.046875t.328125.390625q.234375.125.828125.125v.328125h-4.0625v-.328125q.609375 0 .8125-.109375.21875-.125.34375-.390625.125-.28125.125-1.0625v-3.203125q0-1.359375-.078125-1.765625-.078125-.296875-.21875-.40625-.125-.109375-.359375-.109375-.265625 0-.625.140625l-.125-.328125 2.515625-1.03125h.40625zm4.7145386-2.5v2.75h1.953125v.640625h-1.953125v5.40625q0 .8125.234375 1.09375t.59375.28125q.3125 0 .59375-.1875t.4375-.546875h.34375q-.3125.890625-.90625 1.34375-.578125.453125-1.1875.453125-.421875 0-.828125-.234375-.390625-.234375-.59375-.65625-.1875-.4375-.1875-1.34375v-5.609375h-1.3125v-.296875q.5-.203125 1.015625-.6875.53125-.484375.9375-1.125.203125-.359375.578125-1.28125h.28125zm5.2145386-1.859375v6.109375q1.015625-1.125 1.609375-1.4375t1.1875-.3125q.703125 0 1.203125.390625.515625.390625.765625 1.234375.171875.578125.171875 2.125v2.953125q0 .796875.125 1.09375.09375.21875.3125.34375t.796875.125v.328125h-4.09375v-.328125h.1875q.59375 0 .8125-.171875.234375-.1875.328125-.53125.015625-.140625.015625-.859375v-2.953125q0-1.359375-.140625-1.78125-.140625-.4375-.453125-.640625-.296875-.21875-.734375-.21875-.453125 0-.9375.234375t-1.15625.953125v4.40625q0 .859375.09375 1.078125.09375.203125.359375.34375t.890625.140625v.328125h-4.125v-.328125q.546875 0 .875-.171875.171875-.09375.28125-.34375.109375-.265625.109375-1.046875v-7.546875q0-1.4375-.0625-1.765625t-.203125-.4375q-.140625-.125-.390625-.125-.1875 0-.609375.15625l-.125-.328125 2.484375-1.015625h.421875zm9.359375 6.140625q.90625-.90625 1.078125-1.046875.40625-.34375.875-.53125.484375-.203125.9375-.203125.78125 0 1.34375.46875.578125.453125.765625 1.3125.9375-1.09375 1.578125-1.4375.65625-.34375 1.34375-.34375.65625 0 1.171875.34375t.8125 1.125q.203125.515625.203125 1.65625v3.578125q0 .78125.125 1.078125.078125.203125.328125.34375t.796875.140625v.328125h-4.109375v-.328125h.171875q.53125 0 .84375-.203125.203125-.15625.296875-.46875.03125-.15625.03125-.890625v-3.578125q0-1.03125-.234375-1.453125-.359375-.578125-1.140625-.578125-.484375 0-.984375.25-.484375.234375-1.171875.890625l-.015625.09375.015625.40625v3.96875q0 .859375.09375 1.078125.09375.203125.359375.34375t.90625.140625v.328125h-4.21875v-.328125q.6875 0 .953125-.15625.265625-.171875.359375-.5.046875-.15625.046875-.90625v-3.578125q0-1.03125-.296875-1.46875-.40625-.59375-1.125-.59375-.5 0-.96875.265625-.765625.40625-1.171875.90625v4.46875q0 .828125.109375 1.078125.109375.234375.328125.359375.234375.125.921875.125v.328125h-4.125v-.328125q.5625 0 .796875-.125t.34375-.390625q.125-.265625.125-1.046875v-3.1875q0-1.375-.09375-1.765625-.0625-.3125-.203125-.421875-.125-.109375-.359375-.109375-.265625 0-.609375.140625l-.140625-.328125 2.515625-1.03125h.390625v1.78125z"/><path d="M597.38055 172.89764v37.102356"/><path stroke="#000" stroke-linecap="butt" stroke-linejoin="round" d="M597.38055 172.89764v31.102356"/><path fill="#000" fill-rule="evenodd" stroke="#000" stroke-linecap="butt" d="m595.7288 204 1.6517334 4.538101L599.0322668 204z"/><path d="M597.36743 259.39633v37.102356"/><path stroke="#000" stroke-linecap="butt" stroke-linejoin="round" d="M597.36743 259.39633v31.102356"/><path fill="#000" fill-rule="evenodd" stroke="#000" stroke-linecap="butt" d="m595.7157 290.4987 1.6517334 4.538086 1.6517334-4.538086z"/><path d="M457.36484 116.29921h41.763763v31.905518h41.763794"/><path stroke="#000" stroke-linecap="butt" stroke-linejoin="round" d="M457.36484 116.29921h41.763763v31.905518h35.763794"/><path fill="#000" fill-rule="evenodd" stroke="#000" stroke-linecap="butt" d="m534.8924 149.85646 4.538086-1.6517334-4.538086-1.6517334z"/><path d="M456.48688 234.70341h84.37793"/><path stroke="#000" stroke-linecap="butt" stroke-linejoin="round" d="M456.48688 234.70341h78.37793"/><path fill="#000" fill-rule="evenodd" stroke="#000" stroke-linecap="butt" d="m534.8648 236.35515 4.538147-1.6517334-4.538147-1.6517334z"/><path d="M576.374 384.4882c0-11.602325 9.405518-21.007874 21.007874-21.007874 5.5716553 0 10.915039 2.2133179 14.854797 6.153076 3.9397583 3.9397278 6.153076 9.283173 6.153076 14.854797 0 11.602325-9.405579 21.007874-21.007874 21.007874-11.602356 0-21.007874-9.405548-21.007874-21.007874z"/><path stroke="#000" stroke-linecap="butt" stroke-linejoin="round" d="M576.374 384.4882c0-11.602325 9.405518-21.007874 21.007874-21.007874 5.5716553 0 10.915039 2.2133179 14.854797 6.153076 3.9397583 3.9397278 6.153076 9.283173 6.153076 14.854797 0 11.602325-9.405579 21.007874-21.007874 21.007874-11.602356 0-21.007874-9.405548-21.007874-21.007874z"/><path fill="#000" d="M592.4649 383.3613h9.828125v.75H592.4649v-.75zm0 2.96875h9.828125v.75H592.4649v-.75z"/><path d="M597.36743 326.36746v37.102356"/><path stroke="#000" stroke-linecap="butt" stroke-linejoin="round" d="M597.36743 326.36746v31.102356"/><path fill="#000" fill-rule="evenodd" stroke="#000" stroke-linecap="butt" d="m595.7157 357.46982 1.6517334 4.538086 1.6517334-4.538086z"/><path d="M456.4882 157.9685h25.565521v226.51968h94.30847"/><path stroke="#000" stroke-linecap="butt" stroke-linejoin="round" d="M456.4882 157.9685h25.565521v226.51968h88.30847"/><path fill="#000" fill-rule="evenodd" stroke="#000" stroke-linecap="butt" d="m570.3622 386.13992 4.538147-1.6517334-4.538147-1.6517334z"/><path d="M523.2559 442.60892h148.22046v29.858276H523.2559z"/><path stroke="#000" stroke-linecap="butt" stroke-linejoin="round" d="M523.2559 442.60892h148.22046v29.858276H523.2559z"/><path fill="#000" d="M549.4367 460.31744h-4.78125l-.828125 1.953125q-.3125.71875-.3125 1.078125 0 .28125.265625.5.265625.203125 1.15625.265625v.34375h-3.890625v-.34375q.78125-.125 1-.34375.46875-.4375 1.03125-1.78125l4.34375-10.171875h.328125l4.296875 10.28125q.515625 1.234375.9375 1.609375t1.1875.40625v.34375h-4.875v-.34375q.734375-.03125.984375-.234375.265625-.21875.265625-.515625 0-.40625-.359375-1.265625l-.75-1.78125zm-.25-.671875-2.09375-4.984375-2.15625 4.984375h4.25zm13.082336-3.53125v5.0625q0 1.4375.0625 1.765625.078125.328125.21875.453125.15625.125.359375.125.28125 0 .640625-.15625l.125.3125-2.484375 1.03125h-.421875v-1.765625q-1.078125 1.171875-1.640625 1.46875t-1.1875.296875q-.703125 0-1.21875-.40625t-.71875-1.03125q-.1875-.640625-.1875-1.8125v-3.71875q0-.59375-.140625-.8125-.125-.234375-.375-.359375t-.90625-.109375v-.34375h2.921875v5.578125q0 1.171875.40625 1.546875.40625.359375.984375.359375.390625 0 .890625-.25t1.171875-.9375v-4.734375q0-.703125-.265625-.953125-.25-.25-1.0625-.265625v-.34375h2.828125zm4.4375-2.75v2.75h1.953125v.640625h-1.953125v5.40625q0 .8125.234375 1.09375t.59375.28125q.3125 0 .59375-.1875t.4375-.546875h.34375q-.3125.890625-.90625 1.34375-.578125.453125-1.1875.453125-.421875 0-.828125-.234375-.390625-.234375-.59375-.65625-.1875-.4375-.1875-1.34375v-5.609375h-1.3125v-.296875q.5-.203125 1.015625-.6875.53125-.484375.9375-1.125.203125-.359375.578125-1.28125h.28125zm5.2145386-1.859375v6.109375q1.015625-1.125 1.609375-1.4375t1.1875-.3125q.703125 0 1.203125.390625.515625.390625.765625 1.234375.171875.578125.171875 2.125v2.953125q0 .796875.125 1.09375.09375.21875.3125.34375t.796875.125v.328125h-4.09375v-.328125h.1875q.59375 0 .8125-.171875.234375-.1875.328125-.53125.015625-.140625.015625-.859375v-2.953125q0-1.359375-.140625-1.78125-.140625-.4375-.453125-.640625-.296875-.21875-.734375-.21875-.453125 0-.9375.234375t-1.15625.953125v4.40625q0 .859375.09375 1.078125.09375.203125.359375.34375t.890625.140625v.328125h-4.125v-.328125q.546875 0 .875-.171875.171875-.09375.28125-.34375.109375-.265625.109375-1.046875v-7.546875q0-1.4375-.0625-1.765625t-.203125-.4375q-.140625-.125-.390625-.125-.1875 0-.609375.15625l-.125-.328125 2.484375-1.015625h.421875zm8.28125 7.75q0 1.859375.90625 2.921875.90625 1.046875 2.140625 1.046875.8125 0 1.421875-.4375.609375-.453125 1.015625-1.546875l.28125.171875q-.1875 1.25-1.109375 2.28125-.921875 1.015625-2.296875 1.015625-1.515625 0-2.59375-1.171875-1.0625-1.171875-1.0625-3.140625 0-2.140625 1.09375-3.328125 1.109375-1.203125 2.765625-1.203125 1.40625 0 2.296875.921875.90625.921875.90625 2.46875h-5.765625zm0-.53125h3.859375q-.046875-.796875-.1875-1.125-.234375-.515625-.6875-.796875-.4375-.296875-.9375-.296875-.75 0-1.34375.59375-.59375.578125-.703125 1.625zm9.311829-1.09375q1.46875-1.765625 2.796875-1.765625.6875 0 1.171875.34375.5.34375.78125 1.125.203125.546875.203125 1.671875v3.5625q0 .796875.125 1.078125.109375.234375.328125.359375t.828125.125v.328125h-4.125v-.328125h.171875q.578125 0 .8125-.171875.234375-.1875.328125-.53125.03125-.140625.03125-.859375v-3.40625q0-1.140625-.296875-1.65625t-1-.515625q-1.078125 0-2.15625 1.1875v4.390625q0 .859375.09375 1.046875.140625.265625.359375.390625t.90625.125v.328125h-4.125v-.328125h.171875q.640625 0 .859375-.3125.234375-.328125.234375-1.25v-3.09375q0-1.5-.078125-1.828125-.0625-.328125-.203125-.4375-.140625-.125-.375-.125-.265625 0-.609375.140625l-.140625-.328125 2.515625-1.03125h.390625v1.765625zm9.3125-4.265625v2.75h1.953125v.640625h-1.953125v5.40625q0 .8125.234375 1.09375t.59375.28125q.3125 0 .59375-.1875t.4375-.546875h.34375q-.3125.890625-.90625 1.34375-.578125.453125-1.1875.453125-.421875 0-.828125-.234375-.390625-.234375-.59375-.65625-.1875-.4375-.1875-1.34375v-5.609375h-1.3125v-.296875q.5-.203125 1.015625-.6875.53125-.484375.9375-1.125.203125-.359375.578125-1.28125h.28125zm4.8864136-1.859375q.390625 0 .65625.265625t.265625.65625q0 .375-.265625.65625-.265625.265625-.65625.265625-.375 0-.65625-.265625-.265625-.28125-.265625-.65625 0-.390625.265625-.65625t.65625-.265625zm.765625 4.359375v6.703125q0 .78125.109375 1.046875t.328125.390625q.234375.125.828125.125v.328125h-4.0625v-.328125q.609375 0 .8125-.109375.21875-.125.34375-.390625.125-.28125.125-1.0625v-3.203125q0-1.359375-.078125-1.765625-.078125-.296875-.21875-.40625-.125-.109375-.359375-.109375-.265625 0-.625.140625l-.125-.328125 2.515625-1.03125h.40625zm9.386414 5.421875q-.34375 1.65625-1.328125 2.546875-.984375.875-2.171875.875-1.421875 0-2.484375-1.1875-1.046875-1.1875-1.046875-3.21875 0-1.96875 1.171875-3.203125t2.8125-1.234375q1.21875 0 2.015625.65625t.796875 1.34375q0 .359375-.234375.578125-.21875.203125-.609375.203125-.546875 0-.8125-.34375-.15625-.1875-.21875-.71875-.046875-.546875-.359375-.828125-.328125-.28125-.890625-.28125-.90625 0-1.46875.671875-.734375.90625-.734375 2.359375 0 1.5.734375 2.640625t1.984375 1.140625q.890625 0 1.609375-.609375.5-.421875.96875-1.515625l.265625.125zm5.9211426 1.96875q-1.28125 1-1.609375 1.15625-.5.21875-1.046875.21875-.875 0-1.4375-.59375-.546875-.59375-.546875-1.5625 0-.609375.265625-1.046875.375-.625 1.296875-1.171875t3.078125-1.328125v-.328125q0-1.25-.40625-1.703125-.390625-.46875-1.140625-.46875-.578125 0-.921875.3125-.34375.296875-.34375.703125l.015625.53125q0 .421875-.21875.65625-.203125.21875-.546875.21875t-.5625-.234375q-.203125-.234375-.203125-.65625 0-.78125.796875-1.4375.8125-.65625 2.25-.65625 1.109375 0 1.828125.375.53125.28125.796875.890625.15625.390625.15625 1.59375v2.84375q0 1.1875.046875 1.453125t.140625.359375q.109375.09375.25.09375t.25-.0625q.203125-.125.75-.671875v.515625q-1.03125 1.359375-1.953125 1.359375-.453125 0-.71875-.296875-.265625-.3125-.265625-1.0625zm0-.59375v-3.171875q-1.375.546875-1.78125.765625-.71875.40625-1.03125.84375-.296875.4375-.296875.953125 0 .65625.390625 1.09375.390625.421875.890625.421875.703125 0 1.828125-.90625zm5.9680786-9.296875v2.75h1.953125v.640625h-1.953125v5.40625q0 .8125.234375 1.09375t.59375.28125q.3125 0 .59375-.1875t.4375-.546875h.34375q-.3125.890625-.90625 1.34375-.578125.453125-1.1875.453125-.421875 0-.828125-.234375-.390625-.234375-.59375-.65625-.1875-.4375-.1875-1.34375v-5.609375h-1.3125v-.296875q.5-.203125 1.015625-.6875.53125-.484375.9375-1.125.203125-.359375.578125-1.28125h.28125zm4.1676636 5.890625q0 1.859375.90625 2.921875.90625 1.046875 2.140625 1.046875.8125 0 1.421875-.4375.609375-.453125 1.015625-1.546875l.28125.171875q-.1875 1.25-1.109375 2.28125-.921875 1.015625-2.296875 1.015625-1.515625 0-2.59375-1.171875-1.0625-1.171875-1.0625-3.140625 0-2.140625 1.09375-3.328125 1.109375-1.203125 2.765625-1.203125 1.40625 0 2.296875.921875.90625.921875.90625 2.46875h-5.765625zm0-.53125h3.859375q-.046875-.796875-.1875-1.125-.234375-.515625-.6875-.796875-.4375-.296875-.9375-.296875-.75 0-1.34375.59375-.59375.578125-.703125 1.625zm12.780518 4.796875q-.625.640625-1.203125.921875-.578125.265625-1.25.265625-1.375 0-2.390625-1.140625t-1.015625-2.9375q0-1.796875 1.125-3.28125t2.90625-1.484375q1.09375 0 1.828125.703125v-1.546875q0-1.4375-.078125-1.765625-.0625-.328125-.21875-.4375-.140625-.125-.359375-.125-.234375 0-.625.15625l-.125-.328125 2.484375-1.015625h.421875v9.640625q0 1.46875.0625 1.796875t.21875.453125q.15625.125.359375.125.234375 0 .65625-.15625l.09375.3125-2.484375 1.03125h-.40625v-1.1875zm0-.640625v-4.296875q-.0625-.625-.34375-1.125-.265625-.515625-.71875-.765625-.453125-.265625-.875-.265625-.796875 0-1.4375.71875-.828125.9375-.828125 2.765625 0 1.84375.796875 2.828125.8125.96875 1.796875.96875.828125 0 1.609375-.828125zm6.984375-1.34375h-.375q.0625-1.140625.28125-1.890625t.921875-2.09375q.546875-1.03125.703125-1.578125.171875-.546875.171875-1.109375 0-1.171875-.609375-1.84375-.609375-.6875-1.515625-.6875-.78125 0-1.25.375-.453125.375-.453125.8125 0 .328125.265625.828125.28125.484375.28125.75 0 .328125-.203125.546875t-.515625.21875q-.375 0-.6875-.375t-.3125-1.046875q0-1.03125.875-1.828125.890625-.796875 2.40625-.796875 1.875 0 2.75 1.09375.65625.8125.65625 1.78125 0 .671875-.296875 1.375-.296875.6875-1.125 1.640625-1.3125 1.5-1.609375 2.125-.296875.609375-.359375 1.703125zm-.125 1.140625q.421875 0 .71875.296875t.296875.71875q0 .421875-.3125.71875-.296875.296875-.703125.296875-.421875 0-.71875-.296875t-.296875-.71875q0-.421875.296875-.71875t.71875-.296875z"/><path d="M597.3819 405.49606v37.102356"/><path stroke="#000" stroke-linecap="butt" stroke-linejoin="round" d="M597.3819 405.49606v31.102356"/><path fill="#000" fill-rule="evenodd" stroke="#000" stroke-linecap="butt" d="m595.73016 436.59842 1.6517334 4.5381165 1.6517334-4.5381165z"/></g></svg>